<?xml version="1.0" encoding="utf-8"?>
<!-- Generator: Adobe Illustrator 16.0.3, SVG Export Plug-In . SVG Version: 6.00 Build 0)  -->
<!DOCTYPE svg PUBLIC "-//W3C//DTD SVG 1.1//EN" "http://www.w3.org/Graphics/SVG/1.1/DTD/svg11.dtd">
<svg version="1.1" id="Layer_1" xmlns="http://www.w3.org/2000/svg" x="0px"
     y="0px"
     width="612px" height="792px" viewBox="0 0 612 792" enable-background="new 0 0 612 792" xml:space="preserve">
<path fill="none" stroke="#000000" stroke-miterlimit="10" d="M367.541,188.392c0,0-7.992-7.075,39.988-42.405
	c0,0-10.671,0-10.671-11.777c0-11.776,18.663-23.553,7.991-35.345c-5.487-6.056-11.005-3.377-18.298,0.641
	c-5.152-6.143-11.326-12.548-16.348-14.775c-4.862-2.14-18.575-0.859-32.07,1.165c-1.965-3.931-9.841-8.225-37.251-8.225
	c-24.122,0-33.06,3.348-35.025,8.239c-14.586-1.048-27.819-0.247-28.969,5.881c-2.664,14.135-15.999,23.554-15.999,23.554
	c-7.861,2.605-13.32,9.433-13.32,9.433s10.67,21.209,2.664,40.047c0,0,39.989,4.716,37.325,28.27c0,0-87.984,42.405-146.649,110.722
	S-3.072,482.855,2.256,546.456c5.328,63.601,31.997,141.351,101.318,155.485c69.321,14.136,327.959,21.194,423.95-7.074
	c0,0,18.661-2.358,29.333-21.195c10.67-18.852,53.322-70.676,53.322-171.979C610.18,400.39,551.515,282.621,367.541,188.392z"/>
</svg>
