<?xml version="1.0" encoding="utf-8"?>
<!-- Generator: Adobe Illustrator 16.0.4, SVG Export Plug-In . SVG Version: 6.00 Build 0)  -->
<!DOCTYPE svg PUBLIC "-//W3C//DTD SVG 1.1//EN" "http://www.w3.org/Graphics/SVG/1.1/DTD/svg11.dtd">
<svg version="1.1" id="Layer_1" xmlns="http://www.w3.org/2000/svg" xmlns:xlink="http://www.w3.org/1999/xlink" x="0px" y="0px"
	 width="276px" height="132px" viewBox="0 0 276 132" enable-background="new 0 0 276 132" xml:space="preserve">
<g>
	<g>
		<rect x="0.499" y="116.781" fill="#FFFFFF" width="3.6" height="13.984"/>
		<polygon fill="#FFFFFF" points="16.942,125.172 11.261,116.781 7.651,116.781 7.651,130.766 11.261,130.766 11.261,122.441 
			16.987,130.766 20.553,130.766 20.553,116.781 16.942,116.781 		"/>
		<polygon fill="#FFFFFF" points="23.051,120.05 27.077,120.05 27.077,130.766 30.683,130.766 30.683,120.05 34.757,120.05 
			34.757,116.781 23.051,116.781 		"/>
		<polygon fill="#FFFFFF" points="37.024,130.766 46.776,130.766 46.776,127.812 40.629,127.812 40.629,125.248 45.959,125.248 
			45.959,122.291 40.629,122.291 40.629,119.715 46.776,119.715 46.776,116.781 37.024,116.781 		"/>
		<path fill="#FFFFFF" d="M60.829,121.329c0-2.954-2.303-4.552-5.637-4.552h-5.519v13.988h3.61v-4.676h1.49l2.599,4.676h4.026
			l-3.379-5.219C59.641,125.018,60.829,123.637,60.829,121.329z M55.422,123.385h-2.138v-3.67h2.138
			c0.937,0,1.802,0.713,1.802,1.846C57.224,122.669,56.358,123.385,55.422,123.385z"/>
		<path fill="#FFFFFF" d="M68.788,116.781l-5.562,13.984h3.884l1.088-3.353h4.571l1.095,3.353h3.879l-5.559-13.984H68.788z
			 M69.06,124.748l1.43-4.342l1.401,4.342H69.06z"/>
		<path fill="#FFFFFF" d="M79.028,123.762c0,5.911,3.562,7.154,6.564,7.154c1.489,0,3.021-0.398,4.486-0.988v-3.127
			c-1.531,0.737-2.832,1.012-4.274,1.012c-1.661,0-3.171-0.736-3.171-4.051c0-3.315,1.51-4.049,3.171-4.049
			c1.442,0,2.744,0.271,4.274,1.004v-3.123c-1.463-0.586-2.997-0.984-4.486-0.984C82.591,116.609,79.028,117.846,79.028,123.762z"/>
		<polygon fill="#FFFFFF" points="91.995,120.05 96.021,120.05 96.021,130.766 99.629,130.766 99.629,120.05 103.696,120.05 
			103.696,116.781 91.995,116.781 		"/>
		<rect x="105.985" y="116.781" fill="#FFFFFF" width="3.607" height="13.984"/>
		<polygon fill="#FFFFFF" points="118.802,126.676 115.681,116.781 111.823,116.781 117.19,130.766 120.462,130.766 125.79,116.781 
			121.932,116.781 		"/>
		<polygon fill="#FFFFFF" points="127.954,130.766 137.704,130.766 137.704,127.812 131.56,127.812 131.56,125.248 136.889,125.248 
			136.889,122.291 131.56,122.291 131.56,119.715 137.704,119.715 137.704,116.781 127.954,116.781 		"/>
		<path fill="#FFFFFF" d="M147.686,120.49c0-1.551,1.238-2.393,3.464-2.393c1.426,0,2.577,0.441,3.354,0.885v-1.558
			c-0.899-0.442-2.081-0.835-3.504-0.835c-3.564,0-4.824,2.014-4.824,3.899c0,4.683,7.717,2.62,7.717,6.71
			c0,1.847-1.946,2.225-3.569,2.225c-1.9,0-3.201-0.564-4.021-1.111v1.638c0.985,0.528,2.349,0.987,4.131,0.987
			c3.126,0,4.974-1.41,4.974-3.737C155.405,121.852,147.686,123.551,147.686,120.49z"/>
		<rect x="158.515" y="116.777" fill="#FFFFFF" width="1.51" height="13.988"/>
		<polygon fill="#FFFFFF" points="170.089,123.891 165.288,116.781 163.653,116.781 163.653,130.766 165.163,130.766 
			165.163,119.252 170.089,126.384 175.041,119.252 175.041,130.766 176.551,130.766 176.551,116.781 174.919,116.781 		"/>
		<path fill="#FFFFFF" d="M190.11,125.104c0,3-1.365,4.449-4.177,4.449s-4.178-1.449-4.178-4.449v-8.322h-1.507v8.234
			c0,3.824,2.017,5.922,5.685,5.922c3.673,0,5.685-2.098,5.685-5.922v-8.234h-1.508V125.104L190.11,125.104z"/>
		<polygon fill="#FFFFFF" points="196.657,116.781 195.145,116.781 195.145,130.766 203.809,130.766 203.809,129.299 
			196.657,129.299 		"/>
		<path fill="#FFFFFF" d="M211.134,116.781l-5.58,13.984h1.633l1.68-4.355h6.043l1.679,4.355h1.61l-5.558-13.984H211.134z
			 M209.429,124.959l2.46-6.398l2.452,6.398H209.429z"/>
		<polygon fill="#FFFFFF" points="217.489,118.244 222.438,118.244 222.438,130.766 223.952,130.766 223.952,118.244 
			228.879,118.244 228.879,116.781 217.489,116.781 		"/>
		<rect x="231.167" y="116.777" fill="#FFFFFF" width="1.509" height="13.988"/>
		<path fill="#FFFFFF" d="M242.182,116.59c-4.297,0-6.479,2.409-6.479,7.172c0,4.76,2.183,7.176,6.479,7.176
			c4.321,0,6.507-2.416,6.507-7.174C248.688,118.999,246.503,116.59,242.182,116.59z M242.182,129.51
			c-3.438,0-4.972-1.762-4.972-5.746c0-3.965,1.533-5.748,4.972-5.748c3.466,0,4.995,1.783,4.995,5.748
			C247.176,127.748,245.646,129.51,242.182,129.51z"/>
		<polygon fill="#FFFFFF" points="261.715,128.564 253.369,116.781 251.648,116.781 251.648,130.766 253.158,130.766 
			253.158,118.982 261.524,130.766 263.225,130.766 263.225,116.781 261.715,116.781 		"/>
		<path fill="#FFFFFF" d="M267.778,120.49c0-1.551,1.236-2.393,3.465-2.393c1.425,0,2.576,0.441,3.355,0.885v-1.558
			c-0.902-0.442-2.077-0.835-3.505-0.835c-3.563,0-4.821,2.014-4.821,3.899c0,4.683,7.722,2.62,7.722,6.71
			c0,1.847-1.955,2.225-3.57,2.225c-1.907,0-3.207-0.564-4.027-1.111v1.638c0.986,0.528,2.354,0.987,4.133,0.987
			c3.125,0,4.972-1.41,4.972-3.737C275.499,121.852,267.778,123.551,267.778,120.49z"/>
	</g>
	<g>
		<path fill="#6ACEF5" d="M34.723,25.359H2.511c-1.111,0-2.012,0.904-2.012,2.009v80.542c0,1.111,0.9,2.012,2.012,2.012h17.777
			c1.115,0,2.016-0.9,2.016-2.012V86.84c0-1.119,0.898-2.016,2.016-2.016h10.401c20.544,0,32.334-10.905,32.334-29.799
			C67.058,36.264,55.267,25.359,34.723,25.359 M32.696,66.822h-8.375c-1.119,0-2.017-0.905-2.017-2.02V45.124
			c0-1.115,0.897-2.012,2.017-2.012h8.375c9.631,0,12.683,6.591,12.683,11.915C45.378,60.611,42.327,66.822,32.696,66.822"/>
		<path fill="#6ACEF5" d="M273.487,25.359H149.839c-1.112,0-2.018,0.904-2.018,2.009v80.542c0,1.111,0.904,2.012,2.018,2.012h54.928
			c1.113,0,2.014-0.9,2.014-2.012V94.064c0-1.113-0.899-2.02-2.014-2.02h-34.133c-0.555,0-1.005-0.449-1.005-1.008V77.584
			c0-0.555,0.45-1.01,1.005-1.01h29.188c1.111,0,2.013-0.896,2.013-2.01V60.719c0-1.113-0.9-2.02-2.013-2.02h-29.188
			c-0.555,0-1.005-0.45-1.005-1.008V44.115c0-0.555,0.45-1.006,1.005-1.006l57.45,0.06c0.558,0,1.014,0.453,1.014,1.007v63.733
			c0,1.11,0.902,2.012,2.009,2.012h17.783c1.109,0,2.014-0.899,2.014-2.012V44.178c0-0.553,0.45-1.007,1.008-1.007h21.576
			c1.104,0,2.013-0.905,2.013-2.009V27.368C275.499,26.264,274.592,25.359,273.487,25.359"/>
		<path fill="#FEE105" d="M121.374,48.186c-0.809,2.504-1.572,5.039-2.262,7.625c-0.144,0.543-0.277,1.098-0.426,1.646
			c-6.48,28.008-2.967,46.312-1.746,52.273c0.293,0.125,0.586,0.191,0.891,0.191h16.437c1.111,0,2.024-0.9,2.024-2.012V72.648
			C136.291,60.963,130.993,52.193,121.374,48.186"/>
		<path fill="#FEE105" d="M97.491,46.533V24.585c0-1.112-0.907-2.021-2.012-2.021H77.694c-1.111,0-2.016,0.908-2.016,2.021v83.326
			c0,1.11,0.904,2.012,2.016,2.012h11.184c0.515,0,1.002-0.192,1.406-0.493c3.156-25.248,12.588-47.207,21.896-63.467
			c-1.264-0.125-2.558-0.186-3.916-0.186C104.85,45.777,100.534,46.021,97.491,46.533"/>
		<polygon fill="#FEE105" points="107.711,17.428 120.185,21.938 136.233,8.572 123.88,23.199 137.228,27.904 142.04,1.062 		"/>
		<polyline fill="#F2E916" points="125.108,30.588 124.587,24.6 129.192,26.26 		"/>
	</g>
	<g>
		<path fill="#6ACEF5" d="M257.333,109.922v-4.851h-1.812v-0.648h4.36v0.648h-1.82v4.851H257.333z"/>
		<path fill="#6ACEF5" d="M260.604,109.922v-5.499h1.098l1.302,3.894c0.12,0.363,0.208,0.636,0.263,0.815
			c0.062-0.202,0.16-0.493,0.292-0.881l1.317-3.828h0.979v5.499h-0.701v-4.602l-1.599,4.602h-0.656l-1.591-4.682v4.682H260.604z"/>
	</g>
</g>
</svg>
