<?xml version="1.0" encoding="utf-8"?>
<!-- Generator: Adobe Illustrator 16.0.4, SVG Export Plug-In . SVG Version: 6.00 Build 0)  -->
<!DOCTYPE svg PUBLIC "-//W3C//DTD SVG 1.1//EN" "http://www.w3.org/Graphics/SVG/1.1/DTD/svg11.dtd">
<svg version="1.1" id="Layer_1" xmlns="http://www.w3.org/2000/svg" xmlns:xlink="http://www.w3.org/1999/xlink" x="0px" y="0px"
	 width="273px" height="130px" viewBox="0 0 273 130" enable-background="new 0 0 273 130" xml:space="preserve">
<g>
	<g>
		<g enable-background="new    ">
			<path fill="#FFFFFF" d="M15.88,28.365c-1.116,0.948-2.189,1.617-3.221,2.008c-1.032,0.39-2.139,0.585-3.321,0.585
				c-1.952,0-3.453-0.477-4.501-1.431c-1.049-0.953-1.573-2.172-1.573-3.655c0-0.87,0.198-1.665,0.594-2.385
				c0.396-0.72,0.915-1.297,1.556-1.731c0.641-0.436,1.364-0.764,2.167-0.987c0.591-0.156,1.483-0.307,2.677-0.452
				c2.432-0.29,4.222-0.636,5.371-1.037c0.011-0.412,0.017-0.675,0.017-0.786c0-1.228-0.284-2.092-0.853-2.594
				c-0.77-0.68-1.914-1.021-3.43-1.021c-1.417,0-2.462,0.248-3.137,0.744c-0.675,0.497-1.174,1.375-1.498,2.636l-2.945-0.401
				c0.268-1.261,0.708-2.278,1.322-3.054c0.613-0.775,1.5-1.372,2.661-1.79c1.16-0.419,2.504-0.628,4.032-0.628
				c1.517,0,2.75,0.179,3.698,0.535c0.948,0.357,1.645,0.807,2.091,1.348c0.446,0.541,0.758,1.224,0.937,2.049
				c0.101,0.514,0.151,1.439,0.151,2.778v4.016c0,2.8,0.064,4.57,0.192,5.312c0.128,0.742,0.382,1.453,0.761,2.134h-3.146
				C16.17,29.932,15.97,29.201,15.88,28.365z M15.629,21.639c-1.093,0.446-2.733,0.825-4.919,1.138
				c-1.238,0.179-2.114,0.379-2.627,0.603c-0.513,0.223-0.91,0.549-1.188,0.979c-0.279,0.43-0.418,0.906-0.418,1.431
				c0,0.803,0.304,1.473,0.912,2.008c0.607,0.535,1.497,0.803,2.668,0.803c1.16,0,2.192-0.253,3.095-0.761
				c0.904-0.508,1.567-1.202,1.991-2.083c0.324-0.681,0.485-1.685,0.485-3.012L15.629,21.639L15.629,21.639z"/>
			<path fill="#FFFFFF" d="M34.871,30.557v-2.242c-1.127,1.763-2.783,2.644-4.969,2.644c-1.417,0-2.719-0.391-3.907-1.171
				c-1.188-0.781-2.108-1.871-2.761-3.271c-0.652-1.399-0.979-3.009-0.979-4.827c0-1.773,0.295-3.382,0.887-4.827
				c0.591-1.444,1.478-2.552,2.66-3.321c1.182-0.769,2.504-1.154,3.966-1.154c1.071,0,2.024,0.226,2.861,0.678
				c0.837,0.452,1.517,1.04,2.042,1.766V6.027h2.995v24.529L34.871,30.557L34.871,30.557z M25.351,21.688
				c0,2.275,0.479,3.977,1.439,5.104c0.959,1.127,2.091,1.689,3.396,1.689c1.316,0,2.435-0.537,3.355-1.614
				c0.92-1.076,1.38-2.719,1.38-4.928c0-2.432-0.469-4.216-1.406-5.354c-0.937-1.139-2.091-1.707-3.463-1.707
				c-1.338,0-2.457,0.547-3.354,1.64C25.799,17.612,25.351,19.335,25.351,21.688z"/>
			<path fill="#FFFFFF" d="M53.996,28.365c-1.116,0.948-2.189,1.617-3.221,2.008c-1.032,0.39-2.139,0.585-3.321,0.585
				c-1.952,0-3.453-0.477-4.501-1.431c-1.049-0.953-1.573-2.172-1.573-3.655c0-0.87,0.198-1.665,0.594-2.385
				c0.396-0.72,0.915-1.297,1.556-1.731c0.641-0.436,1.364-0.764,2.167-0.987c0.591-0.156,1.483-0.307,2.677-0.452
				c2.432-0.29,4.222-0.636,5.371-1.037c0.011-0.412,0.017-0.675,0.017-0.786c0-1.228-0.284-2.092-0.853-2.594
				c-0.77-0.68-1.914-1.021-3.43-1.021c-1.417,0-2.462,0.248-3.137,0.744c-0.675,0.497-1.174,1.375-1.498,2.636l-2.945-0.401
				c0.268-1.261,0.708-2.278,1.322-3.054c0.613-0.775,1.5-1.372,2.661-1.79c1.16-0.419,2.504-0.628,4.032-0.628
				c1.517,0,2.75,0.179,3.698,0.535c0.948,0.357,1.645,0.807,2.091,1.348c0.446,0.541,0.758,1.224,0.937,2.049
				c0.101,0.514,0.151,1.439,0.151,2.778v4.016c0,2.8,0.064,4.57,0.192,5.312c0.128,0.742,0.382,1.453,0.761,2.134h-3.146
				C54.286,29.932,54.085,29.201,53.996,28.365z M53.745,21.639c-1.093,0.446-2.733,0.825-4.919,1.138
				c-1.238,0.179-2.114,0.379-2.627,0.603c-0.513,0.223-0.91,0.549-1.188,0.979c-0.279,0.43-0.418,0.906-0.418,1.431
				c0,0.803,0.304,1.473,0.912,2.008c0.607,0.535,1.497,0.803,2.668,0.803c1.16,0,2.192-0.253,3.095-0.761
				c0.904-0.508,1.567-1.202,1.991-2.083c0.324-0.681,0.485-1.685,0.485-3.012L53.745,21.639L53.745,21.639z"/>
			<path fill="#FFFFFF" d="M61.458,37.366V12.787h2.744v2.31c0.646-0.904,1.377-1.581,2.192-2.033
				c0.814-0.452,1.801-0.678,2.961-0.678c1.517,0,2.855,0.391,4.016,1.171c1.16,0.781,2.036,1.883,2.627,3.305
				c0.591,1.423,0.887,2.981,0.887,4.677c0,1.818-0.326,3.455-0.979,4.911c-0.653,1.455-1.601,2.571-2.845,3.346
				s-2.552,1.163-3.923,1.163c-1.004,0-1.905-0.212-2.703-0.636c-0.798-0.424-1.453-0.959-1.966-1.606v8.65L61.458,37.366
				L61.458,37.366z M64.186,21.772c0,2.287,0.462,3.977,1.389,5.069c0.926,1.094,2.046,1.64,3.363,1.64
				c1.339,0,2.485-0.565,3.438-1.698c0.954-1.132,1.431-2.886,1.431-5.262c0-2.265-0.466-3.96-1.397-5.087
				c-0.932-1.126-2.044-1.689-3.338-1.689c-1.283,0-2.417,0.6-3.405,1.799S64.186,19.486,64.186,21.772z"/>
			<path fill="#FFFFFF" d="M87.091,27.863l0.435,2.66c-0.848,0.178-1.606,0.268-2.275,0.268c-1.094,0-1.941-0.173-2.543-0.519
				s-1.026-0.801-1.271-1.364c-0.246-0.562-0.368-1.748-0.368-3.556V15.13h-2.208v-2.343h2.208v-4.4l2.995-1.807v6.207h3.028v2.343
				h-3.028v10.391c0,0.859,0.053,1.411,0.159,1.656c0.106,0.245,0.279,0.44,0.519,0.586c0.24,0.145,0.583,0.217,1.029,0.217
				C86.104,27.979,86.544,27.941,87.091,27.863z"/>
			<path fill="#FFFFFF" d="M102.2,24.834l3.112,0.385c-0.491,1.818-1.4,3.229-2.728,4.233s-3.023,1.506-5.086,1.506
				c-2.599,0-4.66-0.8-6.183-2.4c-1.522-1.601-2.284-3.846-2.284-6.735c0-2.989,0.77-5.31,2.309-6.96
				c1.539-1.65,3.536-2.477,5.99-2.477c2.376,0,4.317,0.809,5.823,2.426c1.506,1.618,2.259,3.894,2.259,6.827
				c0,0.179-0.005,0.446-0.017,0.803h-13.25c0.111,1.952,0.664,3.447,1.656,4.484c0.992,1.037,2.231,1.556,3.714,1.556
				c1.104,0,2.047-0.289,2.828-0.869C101.124,27.033,101.743,26.106,102.2,24.834z M92.312,19.966h9.922
				c-0.134-1.495-0.513-2.616-1.138-3.363c-0.959-1.16-2.203-1.74-3.731-1.74c-1.383,0-2.546,0.463-3.489,1.389
				S92.412,18.415,92.312,19.966z"/>
			<path fill="#FFFFFF" d="M120.622,30.557v-2.242c-1.127,1.763-2.783,2.644-4.969,2.644c-1.417,0-2.719-0.391-3.907-1.171
				c-1.188-0.781-2.108-1.871-2.761-3.271c-0.652-1.399-0.979-3.009-0.979-4.827c0-1.773,0.295-3.382,0.887-4.827
				c0.591-1.444,1.478-2.552,2.66-3.321c1.182-0.769,2.504-1.154,3.966-1.154c1.071,0,2.024,0.226,2.861,0.678
				c0.837,0.452,1.517,1.04,2.042,1.766V6.027h2.995v24.529L120.622,30.557L120.622,30.557z M111.102,21.688
				c0,2.275,0.479,3.977,1.439,5.104c0.959,1.127,2.091,1.689,3.396,1.689c1.316,0,2.435-0.537,3.355-1.614
				c0.92-1.076,1.38-2.719,1.38-4.928c0-2.432-0.469-4.216-1.406-5.354c-0.937-1.139-2.091-1.707-3.463-1.707
				c-1.338,0-2.457,0.547-3.354,1.64C111.55,17.612,111.102,19.335,111.102,21.688z"/>
			<path fill="#FFFFFF" d="M138.393,30.557V15.13h-2.662v-2.343h2.662v-1.891c0-1.193,0.104-2.08,0.316-2.66
				c0.29-0.78,0.801-1.414,1.531-1.899c0.73-0.485,1.754-0.728,3.07-0.728c0.848,0,1.785,0.101,2.811,0.301l-0.451,2.627
				c-0.625-0.111-1.217-0.167-1.773-0.167c-0.914,0-1.562,0.195-1.94,0.586s-0.567,1.121-0.567,2.191v1.64h3.463v2.343h-3.463
				v15.427H138.393z"/>
			<path fill="#FFFFFF" d="M147.158,30.557v-17.77h2.711v2.694c0.691-1.261,1.33-2.092,1.916-2.493
				c0.586-0.401,1.23-0.603,1.933-0.603c1.015,0,2.048,0.323,3.095,0.971l-1.037,2.794c-0.735-0.435-1.473-0.652-2.207-0.652
				c-0.658,0-1.25,0.198-1.774,0.594c-0.522,0.396-0.897,0.945-1.12,1.648c-0.335,1.07-0.502,2.242-0.502,3.514v9.303H147.158z"/>
			<path fill="#FFFFFF" d="M157.482,21.672c0-3.29,0.914-5.728,2.744-7.312c1.526-1.316,3.391-1.975,5.588-1.975
				c2.442,0,4.438,0.801,5.99,2.401c1.551,1.6,2.325,3.812,2.325,6.634c0,2.287-0.344,4.086-1.028,5.396
				c-0.686,1.31-1.685,2.328-2.994,3.054c-1.312,0.725-2.742,1.087-4.293,1.087c-2.486,0-4.498-0.797-6.031-2.393
				C158.25,26.971,157.482,24.673,157.482,21.672z M160.578,21.672c0,2.275,0.496,3.979,1.488,5.111
				c0.992,1.133,2.242,1.698,3.748,1.698c1.494,0,2.737-0.568,3.731-1.706c0.992-1.138,1.488-2.872,1.488-5.204
				c0-2.197-0.499-3.862-1.498-4.994c-0.998-1.132-2.238-1.698-3.724-1.698c-1.506,0-2.754,0.563-3.748,1.689
				C161.074,17.695,160.578,19.396,160.578,21.672z"/>
			<path fill="#FFFFFF" d="M177.661,30.557v-17.77h2.694v2.493c0.557-0.87,1.299-1.569,2.225-2.1
				c0.926-0.529,1.98-0.795,3.162-0.795c1.316,0,2.396,0.273,3.238,0.82c0.842,0.546,1.436,1.311,1.781,2.292
				c1.405-2.075,3.234-3.112,5.487-3.112c1.763,0,3.117,0.488,4.065,1.464c0.947,0.977,1.422,2.479,1.422,4.51v12.197h-2.994V19.363
				c0-1.205-0.098-2.072-0.292-2.603c-0.195-0.529-0.552-0.956-1.062-1.279c-0.515-0.323-1.117-0.485-1.809-0.485
				c-1.249,0-2.286,0.416-3.112,1.246c-0.825,0.831-1.237,2.161-1.237,3.991v10.323h-3.013V19.012c0-1.339-0.245-2.343-0.735-3.012
				s-1.295-1.004-2.409-1.004c-0.849,0-1.632,0.224-2.351,0.669c-0.721,0.446-1.242,1.099-1.564,1.958
				c-0.324,0.859-0.485,2.097-0.485,3.714v9.22H177.661z"/>
		</g>
		<g>
			<path fill="#FFFFFF" d="M46.126,70.023c0,4.498-3.525,8.76-9.58,8.76H24.07V61.266h12.476
				C42.6,61.266,46.126,65.521,46.126,70.023z M68.182,70.023c0-14.241-10.711-27.866-30.621-27.866H2.025v86.641h22.046V97.893
				h13.493C57.471,97.893,68.182,84.26,68.182,70.023z"/>
			<polygon fill="#FFFFFF" points="205.32,128.805 144.33,128.805 144.33,42.158 204.818,42.158 270.975,42.158 270.975,61.145 
				248.928,61.145 248.928,128.805 226.873,128.805 226.873,61.145 205.32,61.145 166.379,61.145 166.379,75.625 199.646,75.625 
				199.646,94.611 166.379,94.611 166.379,109.823 205.32,109.823 			"/>
			<path fill="#FFFFFF" d="M122.715,65.881c-12.096-5.899-25.902-0.322-25.902-0.322V42.161H72.831v86.644h23.473v-33.07h0.038
				c-0.02-0.241-0.038-0.488-0.038-0.739c0-5.421,4.396-9.824,9.819-9.824c5.416,0,9.816,4.402,9.816,9.824
				c0,0.248-0.017,0.498-0.038,0.739h0.038v33.07h21.87c0,0,0,2.612,0-31.72C137.807,84.695,137.01,72.852,122.715,65.881z"/>
		</g>
	</g>
	<g>
		<path fill="#FFFFFF" d="M255.436,128.85v-8.848h-3.303v-1.182h7.951v1.182h-3.32v8.848H255.436z"/>
		<path fill="#FFFFFF" d="M261.404,128.85V118.82h1.998l2.373,7.1c0.219,0.661,0.379,1.156,0.479,1.485
			c0.113-0.365,0.293-0.9,0.531-1.607l2.404-6.978h1.785v10.029h-1.281v-8.395l-2.914,8.395h-1.193l-2.902-8.539v8.539H261.404
			L261.404,128.85z"/>
	</g>
</g>
</svg>
