<?xml version="1.0" encoding="utf-8"?>
<!-- Generator: Adobe Illustrator 16.0.4, SVG Export Plug-In . SVG Version: 6.00 Build 0)  -->
<!DOCTYPE svg PUBLIC "-//W3C//DTD SVG 1.1//EN" "http://www.w3.org/Graphics/SVG/1.1/DTD/svg11.dtd">
<svg version="1.1" id="Layer_1" xmlns="http://www.w3.org/2000/svg" xmlns:xlink="http://www.w3.org/1999/xlink" x="0px" y="0px"
	 width="274px" height="77px" viewBox="115.92 195 274 77"
	 enable-background="new 115.92 194.664 273.997 76.267" xml:space="preserve">
<g transform="translate(0,12)">
	<g transform="matrix(1 0 0 1 0 100)">
		<polygon fill="#72C9F1" points="311.558,158.611 295.146,158.611 295.146,137.103 296.679,136.184 308.241,129.246 
			296.679,122.31 295.146,121.391 295.146,102.063 311.558,102.063 		"/>
		<polygon fill="none" stroke="#72C9F1" stroke-width="0.6367" stroke-miterlimit="3.8637" points="311.558,158.611 
			295.146,158.611 295.146,137.103 296.679,136.184 308.241,129.246 296.679,122.31 295.146,121.391 295.146,102.063 
			311.558,102.063 		"/>
		<path fill="#72C9F1" d="M357.604,130.318c0-2.066-0.295-3.947-0.88-5.642c-0.587-1.722-1.479-3.205-2.677-4.452
			c-1.174-1.271-2.612-2.25-4.321-2.94c-1.708-0.714-3.685-1.072-5.927-1.072c-4.283,0-7.648,1.299-10.096,3.894
			c-2.447,2.596-3.67,6-3.67,10.213s1.223,7.629,3.67,10.253c2.472,2.597,5.837,3.895,10.096,3.895c2.931,0,5.429-0.598,7.494-1.788
			c2.066-1.219,3.634-2.889,4.706-5.008C357.068,135.522,357.604,133.072,357.604,130.318z M373.895,130.318
			c0,5.139-1.148,9.869-3.443,14.187c-2.269,4.319-5.66,7.749-10.172,10.292s-10.007,3.815-16.48,3.815
			c-6.553,0-12.098-1.324-16.635-3.974c-4.537-2.65-7.915-6.133-10.134-10.451c-2.193-4.318-3.288-8.939-3.288-13.867
			c0-4.955,1.096-9.578,3.288-13.869c2.192-4.318,5.558-7.789,10.094-10.412c4.565-2.649,10.122-3.973,16.674-3.974
			c4.895,0,9.254,0.755,13.078,2.267c3.848,1.51,7.009,3.562,9.483,6.158c2.473,2.57,4.345,5.577,5.621,9.021
			C373.256,122.926,373.894,126.53,373.895,130.318z"/>
		<path fill="none" stroke="#72C9F1" stroke-width="0.6367" stroke-miterlimit="3.8637" d="M357.604,130.318
			c0-2.066-0.295-3.947-0.88-5.642c-0.587-1.722-1.479-3.205-2.677-4.452c-1.174-1.271-2.612-2.25-4.321-2.94
			c-1.708-0.714-3.685-1.072-5.927-1.072c-4.283,0-7.648,1.299-10.096,3.894c-2.447,2.596-3.67,6-3.67,10.213
			s1.223,7.629,3.67,10.253c2.472,2.597,5.837,3.895,10.096,3.895c2.931,0,5.429-0.598,7.494-1.788
			c2.066-1.219,3.634-2.889,4.706-5.008C357.068,135.522,357.604,133.072,357.604,130.318z M373.895,130.318
			c0,5.139-1.148,9.869-3.443,14.187c-2.269,4.319-5.66,7.749-10.172,10.292s-10.007,3.815-16.48,3.815
			c-6.553,0-12.098-1.324-16.635-3.974c-4.537-2.65-7.915-6.133-10.134-10.451c-2.193-4.318-3.288-8.939-3.288-13.867
			c0-4.955,1.096-9.578,3.288-13.869c2.192-4.318,5.558-7.789,10.094-10.412c4.565-2.649,10.122-3.973,16.674-3.974
			c4.895,0,9.254,0.755,13.078,2.267c3.848,1.51,7.009,3.562,9.483,6.158c2.473,2.57,4.345,5.577,5.621,9.021
			C373.256,122.926,373.894,126.53,373.895,130.318z"/>
		<polygon fill="#72C9F1" points="377.61,122.465 379.102,123.359 388.913,129.246 379.102,135.131 377.61,136.027 		"/>
		<polygon fill="none" stroke="#72C9F1" stroke-width="1.0595" stroke-miterlimit="3.8637" points="377.585,122.465 
			379.076,123.359 388.888,129.246 379.076,135.131 377.585,136.027 		"/>
		<path fill="#989898" d="M144.701,120.252c0,2.938-2.303,5.719-6.25,5.719h-8.141v-11.438h8.141
			C142.398,114.533,144.701,117.312,144.701,120.252z M159.094,120.252c0-9.292-6.99-18.188-19.982-18.188H115.92v56.547h14.39
			v-20.172h8.799C152.104,138.438,159.094,129.545,159.094,120.252z"/>
		<polygon fill="#989898" points="248.585,158.611 208.783,158.611 208.783,102.063 248.258,102.063 291.432,102.063 
			291.432,114.455 277.043,114.455 277.043,158.611 262.65,158.611 262.65,114.455 248.585,114.455 223.174,114.455 
			223.174,123.904 244.885,123.904 244.885,136.294 223.174,136.294 223.174,146.223 248.585,146.223 		"/>
		<circle fill="#72C9F1" cx="303.352" cy="90.87" r="8.206"/>
		<path fill="#989898" d="M194.68,117.543c-7.892-3.849-16.904-0.211-16.904-0.211v-15.269h-15.648v56.547h15.318v-21.584h0.023
			c-0.012-0.159-0.023-0.317-0.023-0.481c0-3.539,2.869-6.408,6.406-6.408s6.406,2.868,6.406,6.408c0,0.164-0.012,0.322-0.023,0.481
			h0.023v21.584h14.274c0,0,0,1.705,0-20.704C204.532,129.822,204.012,122.094,194.68,117.543z"/>
		<text transform="matrix(1 0 0 1 377.5859 156.752)" fill="#72C9F1" font-family="'ArialMT'" font-size="5.723">TM</text>
	</g>
</g>
</svg>
