<?xml version="1.0" encoding="utf-8"?>
<!-- Generator: Adobe Illustrator 16.0.3, SVG Export Plug-In . SVG Version: 6.00 Build 0)  -->
<!DOCTYPE svg PUBLIC "-//W3C//DTD SVG 1.1//EN" "http://www.w3.org/Graphics/SVG/1.1/DTD/svg11.dtd">
<svg version="1.1" id="Layer_1" xmlns="http://www.w3.org/2000/svg" x="0px"
     y="0px"
     width="612px" height="792px" viewBox="0 0 612 792" enable-background="new 0 0 612 792" xml:space="preserve">
<path fill="none" stroke="#010101" stroke-miterlimit="10" d="M471.263,415.361c-3,15.5-13.5,47-41.5,66c0,0-16,7.5-24.5,32.5
	c0,0,2.5,7-20.5,7s-19.5-6-19.5-6s-2-10.5-32-9.5c-27.503,0.916-33-3-43.5,0s-11.5,11-11.5,11s-2,4.5-20,4c0,0-20.5,2-21.5-6.5
	s-9-20.5-15.5-24.5s-26-15.5-34.5-29s-32-16-32-16s-11.5,0.5-14-9s-2.5-43.5-2.5-43.5s-0.5-10.5,12-13s18.5-13,18.5-13
	s4.615-16.491,17.957-34.329c-1.664-10.116-1.207-19.638,4.043-24.421c0.972-0.886,2.2-1.551,3.612-2.05
	c-1.293-9.036-1.856-21.138,3.388-25.282c8.75-6.917,34.918,8.333,41.668,11.833c0,0,1.269,0.984,1.717,1.117
	c5.675-1.913,75.15-24.218,156.115,2.132c13.927,4.532,25.339,10.428,34.698,17.174c2.613-2.025,8.027-1.944,13.425,0.698
	c2.978-1.024,7.253-0.278,13.332,4.709c0,0,6.274,6.274,2.091,12.133c-0.199,0.281-0.421,0.534-0.652,0.764
	c1.418,4.26,0.533,7.22-1.983,9.94C476.818,371.247,473.152,405.6,471.263,415.361z"/>
</svg>
